<mxfile modified="2020-03-21T12:43:33.790Z" host="app.diagrams.net" agent="Mozilla/5.0 (Windows NT 10.0; Win64; x64; rv:74.0) Gecko/20100101 Firefox/74.0" etag="1GBkp4CAlU_IUNH2X9J1" version="12.8.8" type="github">
  <diagram id="l8hXMBHkgcEJcSW0mbfh" name="Page-1">
    <mxGraphModel dx="2207" dy="575" grid="1" gridSize="10" guides="1" tooltips="1" connect="1" arrows="1" fold="1" page="1" pageScale="1" pageWidth="1169" pageHeight="827" math="0" shadow="0">
      <root>
        <mxCell id="0" />
        <mxCell id="1" parent="0" />
        <mxCell id="vuxM7RgwTXhJMc94ew24-10" style="edgeStyle=orthogonalEdgeStyle;rounded=0;orthogonalLoop=1;jettySize=auto;html=1;entryX=0;entryY=0.5;entryDx=0;entryDy=0;" parent="1" source="vuxM7RgwTXhJMc94ew24-1" target="vuxM7RgwTXhJMc94ew24-9" edge="1">
          <mxGeometry relative="1" as="geometry" />
        </mxCell>
        <mxCell id="vuxM7RgwTXhJMc94ew24-1" value="Web App" style="shape=image;verticalLabelPosition=bottom;verticalAlign=top;imageAspect=0;aspect=fixed;image=data:image/svg+xml,PHN2ZyB4bWxucz0iaHR0cDovL3d3dy53My5vcmcvMjAwMC9zdmciIHZlcnNpb249IjEiIHZpZXdCb3g9IjAgMCA0OCA0OCIgZW5hYmxlLWJhY2tncm91bmQ9Im5ldyAwIDAgNDggNDgiPiYjeGE7ICAgIDxyZWN0IHg9IjQiIHk9IjciIGZpbGw9IiNCQkRFRkIiIHdpZHRoPSI0MCIgaGVpZ2h0PSIzNCIvPiYjeGE7ICAgIDxyZWN0IHg9IjkiIHk9IjEyIiBmaWxsPSIjM0Y1MUI1IiB3aWR0aD0iMzAiIGhlaWdodD0iNSIvPiYjeGE7ICAgIDxnIGZpbGw9IiMyMTk2RjMiPiYjeGE7ICAgICAgICA8cmVjdCB4PSI5IiB5PSIyMSIgd2lkdGg9IjEzIiBoZWlnaHQ9IjE2Ii8+JiN4YTsgICAgICAgIDxyZWN0IHg9IjI2IiB5PSIyMSIgd2lkdGg9IjEzIiBoZWlnaHQ9IjE2Ii8+JiN4YTsgICAgPC9nPiYjeGE7PC9zdmc+" parent="1" vertex="1">
          <mxGeometry x="165" y="10" width="48" height="48" as="geometry" />
        </mxCell>
        <mxCell id="vuxM7RgwTXhJMc94ew24-6" style="edgeStyle=orthogonalEdgeStyle;rounded=0;orthogonalLoop=1;jettySize=auto;html=1;entryX=0;entryY=0.5;entryDx=0;entryDy=0;" parent="1" source="vuxM7RgwTXhJMc94ew24-2" target="vuxM7RgwTXhJMc94ew24-1" edge="1">
          <mxGeometry relative="1" as="geometry" />
        </mxCell>
        <mxCell id="vuxM7RgwTXhJMc94ew24-2" value="Health Care Manager" style="shape=image;verticalLabelPosition=bottom;verticalAlign=top;imageAspect=0;aspect=fixed;image=data:image/svg+xml,PHN2ZyB4bWxucz0iaHR0cDovL3d3dy53My5vcmcvMjAwMC9zdmciIHZlcnNpb249IjEiIHZpZXdCb3g9IjAgMCA0OCA0OCIgZW5hYmxlLWJhY2tncm91bmQ9Im5ldyAwIDAgNDggNDgiPiYjeGE7ICAgIDxyZWN0IHg9IjE2IiB5PSIxNSIgZmlsbD0iI0JGMzYwQyIgd2lkdGg9IjE2IiBoZWlnaHQ9IjE4Ii8+JiN4YTsgICAgPHBhdGggZmlsbD0iIzc4OTA5QyIgZD0iTTQwLDQ0SDhjMC0xMSwxMS0xMywxMS0xM2gxMEMyOSwzMSw0MCwzMyw0MCw0NHoiLz4mI3hhOyAgICA8cGF0aCBmaWxsPSIjRkY5ODAwIiBkPSJNMjQsMzdjLTIuMiwwLTUtNi01LTZ2LTZoMTB2NkMyOSwzMSwyNi4yLDM3LDI0LDM3eiIvPiYjeGE7ICAgIDxwYXRoIGZpbGw9IiNGRkI3NEQiIGQ9Ik0zMywxNGMwLTcuNi0xOC01LTE4LDBjMCwxLjEsMCw1LjksMCw3YzAsNSw0LDksOSw5czktNCw5LTlDMzMsMTkuOSwzMywxNS4xLDMzLDE0eiIvPiYjeGE7ICAgIDxwYXRoIGZpbGw9IiNGRjU3MjIiIGQ9Ik0yNCw0QzE3LjksNCw5LDcuNCw5LDI3LjNsNyw0LjdWMTlsMTItN2w0LDV2MTVsNy02YzAtNC0wLjctMjAtMTEtMjBsLTEtMkgyNHoiLz4mI3hhOyAgICA8cGF0aCBmaWxsPSIjRkZCNzREIiBkPSJNMjQsMzhjLTQuNCwwLTUtNy01LTdzMi41LDQsNSw0czUtNCw1LTRTMjguNCwzOCwyNCwzOHoiLz4mI3hhOyAgICA8Y2lyY2xlIGZpbGw9IiM3ODQ3MTkiIGN4PSIyOCIgY3k9IjIxIiByPSIxIi8+JiN4YTsgICAgPGNpcmNsZSBmaWxsPSIjNzg0NzE5IiBjeD0iMjAiIGN5PSIyMSIgcj0iMSIvPiYjeGE7PC9zdmc+" parent="1" vertex="1">
          <mxGeometry x="30" y="10" width="48" height="48" as="geometry" />
        </mxCell>
        <mxCell id="vuxM7RgwTXhJMc94ew24-8" value="Database" style="shape=image;verticalLabelPosition=bottom;verticalAlign=top;imageAspect=0;aspect=fixed;image=data:image/svg+xml,PHN2ZyB4bWxucz0iaHR0cDovL3d3dy53My5vcmcvMjAwMC9zdmciIHZlcnNpb249IjEiIHZpZXdCb3g9IjAgMCA0OCA0OCIgZW5hYmxlLWJhY2tncm91bmQ9Im5ldyAwIDAgNDggNDgiPiYjeGE7ICAgIDxyZWN0IHg9IjEyIiB5PSI0NCIgZmlsbD0iIzI2MzIzOCIgd2lkdGg9IjQiIGhlaWdodD0iMiIvPiYjeGE7ICAgIDxyZWN0IHg9IjMyIiB5PSI0NCIgZmlsbD0iIzI2MzIzOCIgd2lkdGg9IjQiIGhlaWdodD0iMiIvPiYjeGE7ICAgIDxwYXRoIGZpbGw9IiM2MDdEOEIiIGQ9Ik04LDQxVjdjMC0yLjIsMS44LTQsNC00aDI0YzIuMiwwLDQsMS44LDQsNHYzNGMwLDIuMi0xLjgsNC00LDRIMTJDOS44LDQ1LDgsNDMuMiw4LDQxeiIvPiYjeGE7ICAgIDxwYXRoIGZpbGw9IiNCMEJFQzUiIGQ9Ik0xMiwxN1Y4YzAtMC42LDAuNC0xLDEtMWgyMmMwLjYsMCwxLDAuNCwxLDF2OUgxMnoiLz4mI3hhOyAgICA8cmVjdCB4PSIxMiIgeT0iMTkiIGZpbGw9IiNCMEJFQzUiIHdpZHRoPSIyNCIgaGVpZ2h0PSIxMCIvPiYjeGE7ICAgIDxwYXRoIGZpbGw9IiNCMEJFQzUiIGQ9Ik0xMiw0MHYtOWgyNHY5YzAsMC42LTAuNCwxLTEsMUgxM0MxMi40LDQxLDEyLDQwLjYsMTIsNDB6Ii8+JiN4YTsgICAgPHJlY3QgeD0iMjAiIHk9IjExIiBmaWxsPSIjNTQ2RTdBIiB3aWR0aD0iOCIgaGVpZ2h0PSIyIi8+JiN4YTsgICAgPHJlY3QgeD0iMjAiIHk9IjIzIiBmaWxsPSIjNTQ2RTdBIiB3aWR0aD0iOCIgaGVpZ2h0PSIyIi8+JiN4YTsgICAgPHJlY3QgeD0iMjAiIHk9IjM1IiBmaWxsPSIjNTQ2RTdBIiB3aWR0aD0iOCIgaGVpZ2h0PSIyIi8+JiN4YTs8L3N2Zz4=" parent="1" vertex="1">
          <mxGeometry x="466" y="10" width="48" height="48" as="geometry" />
        </mxCell>
        <mxCell id="vuxM7RgwTXhJMc94ew24-11" style="edgeStyle=orthogonalEdgeStyle;rounded=0;orthogonalLoop=1;jettySize=auto;html=1;entryX=0;entryY=0.5;entryDx=0;entryDy=0;" parent="1" source="vuxM7RgwTXhJMc94ew24-9" target="vuxM7RgwTXhJMc94ew24-8" edge="1">
          <mxGeometry relative="1" as="geometry" />
        </mxCell>
        <mxCell id="vuxM7RgwTXhJMc94ew24-9" value="Backend" style="shape=image;verticalLabelPosition=bottom;verticalAlign=top;imageAspect=0;aspect=fixed;image=data:image/svg+xml,PHN2ZyB4bWxucz0iaHR0cDovL3d3dy53My5vcmcvMjAwMC9zdmciIHZlcnNpb249IjEiIHZpZXdCb3g9IjAgMCA0OCA0OCIgZW5hYmxlLWJhY2tncm91bmQ9Im5ldyAwIDAgNDggNDgiPiYjeGE7ICAgIDxwYXRoIGZpbGw9IiM2MDdEOEIiIGQ9Ik0zOS42LDI3LjJjMC4xLTAuNywwLjItMS40LDAuMi0yLjJzLTAuMS0xLjUtMC4yLTIuMmw0LjUtMy4yYzAuNC0wLjMsMC42LTAuOSwwLjMtMS40TDQwLDEwLjggYy0wLjMtMC41LTAuOC0wLjctMS4zLTAuNGwtNSwyLjNjLTEuMi0wLjktMi40LTEuNi0zLjgtMi4ybC0wLjUtNS41Yy0wLjEtMC41LTAuNS0wLjktMS0wLjloLTguNmMtMC41LDAtMSwwLjQtMSwwLjlsLTAuNSw1LjUgYy0xLjQsMC42LTIuNywxLjMtMy44LDIuMmwtNS0yLjNjLTAuNS0wLjItMS4xLDAtMS4zLDAuNGwtNC4zLDcuNGMtMC4zLDAuNS0wLjEsMS4xLDAuMywxLjRsNC41LDMuMmMtMC4xLDAuNy0wLjIsMS40LTAuMiwyLjIgczAuMSwxLjUsMC4yLDIuMkw0LDMwLjRjLTAuNCwwLjMtMC42LDAuOS0wLjMsMS40TDgsMzkuMmMwLjMsMC41LDAuOCwwLjcsMS4zLDAuNGw1LTIuM2MxLjIsMC45LDIuNCwxLjYsMy44LDIuMmwwLjUsNS41IGMwLjEsMC41LDAuNSwwLjksMSwwLjloOC42YzAuNSwwLDEtMC40LDEtMC45bDAuNS01LjVjMS40LTAuNiwyLjctMS4zLDMuOC0yLjJsNSwyLjNjMC41LDAuMiwxLjEsMCwxLjMtMC40bDQuMy03LjQgYzAuMy0wLjUsMC4xLTEuMS0wLjMtMS40TDM5LjYsMjcuMnogTTI0LDM1Yy01LjUsMC0xMC00LjUtMTAtMTBjMC01LjUsNC41LTEwLDEwLTEwYzUuNSwwLDEwLDQuNSwxMCwxMEMzNCwzMC41LDI5LjUsMzUsMjQsMzV6Ii8+JiN4YTsgICAgPHBhdGggZmlsbD0iIzQ1NUE2NCIgZD0iTTI0LDEzYy02LjYsMC0xMiw1LjQtMTIsMTJjMCw2LjYsNS40LDEyLDEyLDEyczEyLTUuNCwxMi0xMkMzNiwxOC40LDMwLjYsMTMsMjQsMTN6IE0yNCwzMCBjLTIuOCwwLTUtMi4yLTUtNWMwLTIuOCwyLjItNSw1LTVzNSwyLjIsNSw1QzI5LDI3LjgsMjYuOCwzMCwyNCwzMHoiLz4mI3hhOzwvc3ZnPg==" parent="1" vertex="1">
          <mxGeometry x="320" y="10" width="48" height="48" as="geometry" />
        </mxCell>
        <mxCell id="vuxM7RgwTXhJMc94ew24-15" style="edgeStyle=orthogonalEdgeStyle;rounded=0;orthogonalLoop=1;jettySize=auto;html=1;" parent="1" source="vuxM7RgwTXhJMc94ew24-12" target="vuxM7RgwTXhJMc94ew24-13" edge="1">
          <mxGeometry relative="1" as="geometry" />
        </mxCell>
        <mxCell id="vuxM7RgwTXhJMc94ew24-12" value="Health Care Clerk" style="shape=image;verticalLabelPosition=bottom;verticalAlign=top;imageAspect=0;aspect=fixed;image=data:image/svg+xml,PHN2ZyB4bWxucz0iaHR0cDovL3d3dy53My5vcmcvMjAwMC9zdmciIHZlcnNpb249IjEiIHZpZXdCb3g9IjAgMCA0OCA0OCIgZW5hYmxlLWJhY2tncm91bmQ9Im5ldyAwIDAgNDggNDgiPiYjeGE7ICAgIDxyZWN0IHg9IjE2IiB5PSIxNSIgZmlsbD0iI0JGMzYwQyIgd2lkdGg9IjE2IiBoZWlnaHQ9IjE4Ii8+JiN4YTsgICAgPHBhdGggZmlsbD0iIzc4OTA5QyIgZD0iTTQwLDQ0SDhjMC0xMSwxMS0xMywxMS0xM2gxMEMyOSwzMSw0MCwzMyw0MCw0NHoiLz4mI3hhOyAgICA8cGF0aCBmaWxsPSIjRkY5ODAwIiBkPSJNMjQsMzdjLTIuMiwwLTUtNi01LTZ2LTZoMTB2NkMyOSwzMSwyNi4yLDM3LDI0LDM3eiIvPiYjeGE7ICAgIDxwYXRoIGZpbGw9IiNGRkI3NEQiIGQ9Ik0zMywxNGMwLTcuNi0xOC01LTE4LDBjMCwxLjEsMCw1LjksMCw3YzAsNSw0LDksOSw5czktNCw5LTlDMzMsMTkuOSwzMywxNS4xLDMzLDE0eiIvPiYjeGE7ICAgIDxwYXRoIGZpbGw9IiNGRjU3MjIiIGQ9Ik0yNCw0QzE3LjksNCw5LDcuNCw5LDI3LjNsNyw0LjdWMTlsMTItN2w0LDV2MTVsNy02YzAtNC0wLjctMjAtMTEtMjBsLTEtMkgyNHoiLz4mI3hhOyAgICA8cGF0aCBmaWxsPSIjRkZCNzREIiBkPSJNMjQsMzhjLTQuNCwwLTUtNy01LTdzMi41LDQsNSw0czUtNCw1LTRTMjguNCwzOCwyNCwzOHoiLz4mI3hhOyAgICA8Y2lyY2xlIGZpbGw9IiM3ODQ3MTkiIGN4PSIyOCIgY3k9IjIxIiByPSIxIi8+JiN4YTsgICAgPGNpcmNsZSBmaWxsPSIjNzg0NzE5IiBjeD0iMjAiIGN5PSIyMSIgcj0iMSIvPiYjeGE7PC9zdmc+" parent="1" vertex="1">
          <mxGeometry x="30" y="140" width="48" height="48" as="geometry" />
        </mxCell>
        <mxCell id="vuxM7RgwTXhJMc94ew24-16" style="edgeStyle=orthogonalEdgeStyle;rounded=0;orthogonalLoop=1;jettySize=auto;html=1;" parent="1" source="vuxM7RgwTXhJMc94ew24-13" edge="1">
          <mxGeometry relative="1" as="geometry">
            <mxPoint x="310" y="164" as="targetPoint" />
          </mxGeometry>
        </mxCell>
        <mxCell id="vuxM7RgwTXhJMc94ew24-13" value="PWA" style="shape=image;verticalLabelPosition=bottom;verticalAlign=top;imageAspect=0;aspect=fixed;image=data:image/svg+xml,PHN2ZyB4bWxucz0iaHR0cDovL3d3dy53My5vcmcvMjAwMC9zdmciIHZlcnNpb249IjEiIHZpZXdCb3g9IjAgMCA0OCA0OCIgZW5hYmxlLWJhY2tncm91bmQ9Im5ldyAwIDAgNDggNDgiPiYjeGE7ICAgIDxwYXRoIGZpbGw9IiM0NTVBNjQiIGQ9Ik00LDMxVjhjMC0yLjIsMS44LTQsNC00aDEyYzIuMiwwLDQsMS44LDQsNHYyM2MwLDIuMi0xLjgsNC00LDRIOEM1LjgsMzUsNCwzMy4yLDQsMzF6Ii8+JiN4YTsgICAgPHBhdGggZmlsbD0iI0JCREVGQiIgZD0iTTIwLDdIOEM3LjQsNyw3LDcuNCw3LDh2MjFjMCwwLjYsMC40LDEsMSwxaDEyYzAuNiwwLDEtMC40LDEtMVY4QzIxLDcuNCwyMC42LDcsMjAsN3oiLz4mI3hhOyAgICA8Y2lyY2xlIGZpbGw9IiMzNzQ3NEYiIGN4PSIxNCIgY3k9IjMyLjUiIHI9IjEuNSIvPiYjeGE7ICAgIDxwYXRoIGZpbGw9IiM1NDZFN0EiIGQ9Ik0xNCwzNlYxM2MwLTIuMiwxLjgtNCw0LTRoMTJjMi4yLDAsNCwxLjgsNCw0djIzYzAsMi4yLTEuOCw0LTQsNEgxOEMxNS44LDQwLDE0LDM4LjIsMTQsMzZ6Ii8+JiN4YTsgICAgPHBhdGggZmlsbD0iI0JCREVGQiIgZD0iTTMwLDEySDE4Yy0wLjYsMC0xLDAuNC0xLDF2MjFjMCwwLjYsMC40LDEsMSwxaDEyYzAuNiwwLDEtMC40LDEtMVYxM0MzMSwxMi40LDMwLjYsMTIsMzAsMTJ6Ii8+JiN4YTsgICAgPGNpcmNsZSBmaWxsPSIjMzc0NzRGIiBjeD0iMjQiIGN5PSIzNy41IiByPSIxLjUiLz4mI3hhOyAgICA8cGF0aCBmaWxsPSIjRTM4OTM5IiBkPSJNMjQsNDBWMThjMC0yLjIsMS44LTQsNC00aDEyYzIuMiwwLDQsMS44LDQsNHYyMmMwLDIuMi0xLjgsNC00LDRIMjhDMjUuOCw0NCwyNCw0Mi4yLDI0LDQweiIvPiYjeGE7ICAgIDxwYXRoIGZpbGw9IiNGRkYzRTAiIGQ9Ik00MCwxN0gyOGMtMC42LDAtMSwwLjQtMSwxdjIwYzAsMC42LDAuNCwxLDEsMWgxMmMwLjYsMCwxLTAuNCwxLTFWMThDNDEsMTcuNCw0MC42LDE3LDQwLDE3eiIvPiYjeGE7ICAgIDxjaXJjbGUgZmlsbD0iI0E2NjQyQSIgY3g9IjM0IiBjeT0iNDEuNSIgcj0iMS41Ii8+JiN4YTs8L3N2Zz4=" parent="1" vertex="1">
          <mxGeometry x="160" y="140" width="48" height="48" as="geometry" />
        </mxCell>
        <mxCell id="vuxM7RgwTXhJMc94ew24-17" style="edgeStyle=orthogonalEdgeStyle;rounded=0;orthogonalLoop=1;jettySize=auto;html=1;" parent="1" source="vuxM7RgwTXhJMc94ew24-14" target="vuxM7RgwTXhJMc94ew24-8" edge="1">
          <mxGeometry relative="1" as="geometry" />
        </mxCell>
        <mxCell id="vuxM7RgwTXhJMc94ew24-14" value="Backend" style="shape=image;verticalLabelPosition=bottom;verticalAlign=top;imageAspect=0;aspect=fixed;image=data:image/svg+xml,PHN2ZyB4bWxucz0iaHR0cDovL3d3dy53My5vcmcvMjAwMC9zdmciIHZlcnNpb249IjEiIHZpZXdCb3g9IjAgMCA0OCA0OCIgZW5hYmxlLWJhY2tncm91bmQ9Im5ldyAwIDAgNDggNDgiPiYjeGE7ICAgIDxwYXRoIGZpbGw9IiM2MDdEOEIiIGQ9Ik0zOS42LDI3LjJjMC4xLTAuNywwLjItMS40LDAuMi0yLjJzLTAuMS0xLjUtMC4yLTIuMmw0LjUtMy4yYzAuNC0wLjMsMC42LTAuOSwwLjMtMS40TDQwLDEwLjggYy0wLjMtMC41LTAuOC0wLjctMS4zLTAuNGwtNSwyLjNjLTEuMi0wLjktMi40LTEuNi0zLjgtMi4ybC0wLjUtNS41Yy0wLjEtMC41LTAuNS0wLjktMS0wLjloLTguNmMtMC41LDAtMSwwLjQtMSwwLjlsLTAuNSw1LjUgYy0xLjQsMC42LTIuNywxLjMtMy44LDIuMmwtNS0yLjNjLTAuNS0wLjItMS4xLDAtMS4zLDAuNGwtNC4zLDcuNGMtMC4zLDAuNS0wLjEsMS4xLDAuMywxLjRsNC41LDMuMmMtMC4xLDAuNy0wLjIsMS40LTAuMiwyLjIgczAuMSwxLjUsMC4yLDIuMkw0LDMwLjRjLTAuNCwwLjMtMC42LDAuOS0wLjMsMS40TDgsMzkuMmMwLjMsMC41LDAuOCwwLjcsMS4zLDAuNGw1LTIuM2MxLjIsMC45LDIuNCwxLjYsMy44LDIuMmwwLjUsNS41IGMwLjEsMC41LDAuNSwwLjksMSwwLjloOC42YzAuNSwwLDEtMC40LDEtMC45bDAuNS01LjVjMS40LTAuNiwyLjctMS4zLDMuOC0yLjJsNSwyLjNjMC41LDAuMiwxLjEsMCwxLjMtMC40bDQuMy03LjQgYzAuMy0wLjUsMC4xLTEuMS0wLjMtMS40TDM5LjYsMjcuMnogTTI0LDM1Yy01LjUsMC0xMC00LjUtMTAtMTBjMC01LjUsNC41LTEwLDEwLTEwYzUuNSwwLDEwLDQuNSwxMCwxMEMzNCwzMC41LDI5LjUsMzUsMjQsMzV6Ii8+JiN4YTsgICAgPHBhdGggZmlsbD0iIzQ1NUE2NCIgZD0iTTI0LDEzYy02LjYsMC0xMiw1LjQtMTIsMTJjMCw2LjYsNS40LDEyLDEyLDEyczEyLTUuNCwxMi0xMkMzNiwxOC40LDMwLjYsMTMsMjQsMTN6IE0yNCwzMCBjLTIuOCwwLTUtMi4yLTUtNWMwLTIuOCwyLjItNSw1LTVzNSwyLjIsNSw1QzI5LDI3LjgsMjYuOCwzMCwyNCwzMHoiLz4mI3hhOzwvc3ZnPg==" parent="1" vertex="1">
          <mxGeometry x="320" y="140" width="48" height="48" as="geometry" />
        </mxCell>
        <mxCell id="ykA_rSqYsuqGMCZ7fQM9-2" style="edgeStyle=orthogonalEdgeStyle;rounded=0;orthogonalLoop=1;jettySize=auto;html=1;entryX=1;entryY=0.5;entryDx=0;entryDy=0;exitX=0.5;exitY=0;exitDx=0;exitDy=0;" edge="1" parent="1" source="ykA_rSqYsuqGMCZ7fQM9-1" target="vuxM7RgwTXhJMc94ew24-8">
          <mxGeometry relative="1" as="geometry" />
        </mxCell>
        <mxCell id="ykA_rSqYsuqGMCZ7fQM9-4" style="edgeStyle=orthogonalEdgeStyle;rounded=0;orthogonalLoop=1;jettySize=auto;html=1;exitX=0;exitY=0.5;exitDx=0;exitDy=0;entryX=1;entryY=0.5;entryDx=0;entryDy=0;" edge="1" parent="1" source="ykA_rSqYsuqGMCZ7fQM9-1" target="ykA_rSqYsuqGMCZ7fQM9-3">
          <mxGeometry relative="1" as="geometry" />
        </mxCell>
        <mxCell id="ykA_rSqYsuqGMCZ7fQM9-1" value="Scheduler" style="shape=image;verticalLabelPosition=bottom;verticalAlign=top;imageAspect=0;aspect=fixed;image=data:image/svg+xml,PHN2ZyB4bWxucz0iaHR0cDovL3d3dy53My5vcmcvMjAwMC9zdmciIHZlcnNpb249IjEiIHZpZXdCb3g9IjAgMCA0OCA0OCIgZW5hYmxlLWJhY2tncm91bmQ9Im5ldyAwIDAgNDggNDgiPiYjeGE7ICAgIDxjaXJjbGUgZmlsbD0iIzAwQUNDMSIgY3g9IjI0IiBjeT0iMjQiIHI9IjIwIi8+JiN4YTsgICAgPGNpcmNsZSBmaWxsPSIjZWVlIiBjeD0iMjQiIGN5PSIyNCIgcj0iMTYiLz4mI3hhOyAgICA8cmVjdCB4PSIyMyIgeT0iMTEiIHdpZHRoPSIyIiBoZWlnaHQ9IjEzIi8+JiN4YTsgICAgPHJlY3QgeD0iMjYuMSIgeT0iMjIuNyIgdHJhbnNmb3JtPSJtYXRyaXgoLS43MDcgLjcwNyAtLjcwNyAtLjcwNyA2NS43ODcgMjcuMjUpIiB3aWR0aD0iMi4zIiBoZWlnaHQ9IjkuMiIvPiYjeGE7ICAgIDxjaXJjbGUgY3g9IjI0IiBjeT0iMjQiIHI9IjIiLz4mI3hhOyAgICA8Y2lyY2xlIGZpbGw9IiMwMEFDQzEiIGN4PSIyNCIgY3k9IjI0IiByPSIxIi8+JiN4YTs8L3N2Zz4=" vertex="1" parent="1">
          <mxGeometry x="561" y="270" width="48" height="48" as="geometry" />
        </mxCell>
        <mxCell id="ykA_rSqYsuqGMCZ7fQM9-5" style="edgeStyle=orthogonalEdgeStyle;rounded=0;orthogonalLoop=1;jettySize=auto;html=1;exitX=0;exitY=0.5;exitDx=0;exitDy=0;entryX=0.5;entryY=1;entryDx=0;entryDy=0;" edge="1" parent="1" source="ykA_rSqYsuqGMCZ7fQM9-3" target="vuxM7RgwTXhJMc94ew24-12">
          <mxGeometry relative="1" as="geometry" />
        </mxCell>
        <mxCell id="ykA_rSqYsuqGMCZ7fQM9-3" value="Backend" style="shape=image;verticalLabelPosition=bottom;verticalAlign=top;imageAspect=0;aspect=fixed;image=data:image/svg+xml,PHN2ZyB4bWxucz0iaHR0cDovL3d3dy53My5vcmcvMjAwMC9zdmciIHZlcnNpb249IjEiIHZpZXdCb3g9IjAgMCA0OCA0OCIgZW5hYmxlLWJhY2tncm91bmQ9Im5ldyAwIDAgNDggNDgiPiYjeGE7ICAgIDxwYXRoIGZpbGw9IiM2MDdEOEIiIGQ9Ik0zOS42LDI3LjJjMC4xLTAuNywwLjItMS40LDAuMi0yLjJzLTAuMS0xLjUtMC4yLTIuMmw0LjUtMy4yYzAuNC0wLjMsMC42LTAuOSwwLjMtMS40TDQwLDEwLjggYy0wLjMtMC41LTAuOC0wLjctMS4zLTAuNGwtNSwyLjNjLTEuMi0wLjktMi40LTEuNi0zLjgtMi4ybC0wLjUtNS41Yy0wLjEtMC41LTAuNS0wLjktMS0wLjloLTguNmMtMC41LDAtMSwwLjQtMSwwLjlsLTAuNSw1LjUgYy0xLjQsMC42LTIuNywxLjMtMy44LDIuMmwtNS0yLjNjLTAuNS0wLjItMS4xLDAtMS4zLDAuNGwtNC4zLDcuNGMtMC4zLDAuNS0wLjEsMS4xLDAuMywxLjRsNC41LDMuMmMtMC4xLDAuNy0wLjIsMS40LTAuMiwyLjIgczAuMSwxLjUsMC4yLDIuMkw0LDMwLjRjLTAuNCwwLjMtMC42LDAuOS0wLjMsMS40TDgsMzkuMmMwLjMsMC41LDAuOCwwLjcsMS4zLDAuNGw1LTIuM2MxLjIsMC45LDIuNCwxLjYsMy44LDIuMmwwLjUsNS41IGMwLjEsMC41LDAuNSwwLjksMSwwLjloOC42YzAuNSwwLDEtMC40LDEtMC45bDAuNS01LjVjMS40LTAuNiwyLjctMS4zLDMuOC0yLjJsNSwyLjNjMC41LDAuMiwxLjEsMCwxLjMtMC40bDQuMy03LjQgYzAuMy0wLjUsMC4xLTEuMS0wLjMtMS40TDM5LjYsMjcuMnogTTI0LDM1Yy01LjUsMC0xMC00LjUtMTAtMTBjMC01LjUsNC41LTEwLDEwLTEwYzUuNSwwLDEwLDQuNSwxMCwxMEMzNCwzMC41LDI5LjUsMzUsMjQsMzV6Ii8+JiN4YTsgICAgPHBhdGggZmlsbD0iIzQ1NUE2NCIgZD0iTTI0LDEzYy02LjYsMC0xMiw1LjQtMTIsMTJjMCw2LjYsNS40LDEyLDEyLDEyczEyLTUuNCwxMi0xMkMzNiwxOC40LDMwLjYsMTMsMjQsMTN6IE0yNCwzMCBjLTIuOCwwLTUtMi4yLTUtNWMwLTIuOCwyLjItNSw1LTVzNSwyLjIsNSw1QzI5LDI3LjgsMjYuOCwzMCwyNCwzMHoiLz4mI3hhOzwvc3ZnPg==" vertex="1" parent="1">
          <mxGeometry x="410" y="270" width="48" height="48" as="geometry" />
        </mxCell>
      </root>
    </mxGraphModel>
  </diagram>
</mxfile>
